<svg xmlns="http://www.w3.org/2000/svg" version="1.1" xmlns:xlink="http://www.w3.org/1999/xlink" xmlns:svgjs="http://svgjs.dev/svgjs" width="1000" height="1000"><g clip-path="url(#SvgjsClipPath1212)"><rect width="1000" height="1000" fill="#ffffff"></rect><g transform="matrix(5.2631578947368425,0,0,5.2631578947368425,100,100)"><svg xmlns="http://www.w3.org/2000/svg" version="1.1" xmlns:xlink="http://www.w3.org/1999/xlink" xmlns:svgjs="http://svgjs.dev/svgjs" width="152" height="152"><svg width="152" height="152" viewBox="0 0 152 152" fill="none" xmlns="http://www.w3.org/2000/svg">
<path d="M86.3318 100.97C85.7646 100.348 85.0468 99.8831 84.3051 99.4958C82.6902 98.6531 80.9241 98.142 79.1705 97.6806V111.278C82.0168 110.956 85.2845 109.922 86.779 107.263C87.4924 105.993 87.6343 104.433 87.3437 103.019C87.1861 102.253 86.8605 101.549 86.3318 100.97Z" fill="black"></path>
<path d="M86.764 107.289C86.7697 107.28 86.7729 107.274 86.779 107.263C86.774 107.272 86.769 107.28 86.764 107.289Z" fill="black"></path>
<path d="M65.8196 79.2338C65.3303 79.9488 65.0232 80.761 64.9385 81.6244C64.8538 82.4896 64.9013 83.4521 65.2298 84.2665C65.5426 85.0426 66.1978 85.6156 66.8741 86.077C67.6329 86.5934 68.4675 86.9969 69.3175 87.3388C70.0306 87.626 70.8327 87.9007 71.6974 88.1661V75.8625C69.5131 76.3289 67.1264 77.3246 65.8196 79.2338Z" fill="black"></path>
<path d="M86.8355 107.163C86.8176 107.194 86.7983 107.228 86.7793 107.263C86.8015 107.222 86.819 107.192 86.8355 107.163Z" fill="black"></path>
<path d="M86.9069 107.035C86.9123 107.026 86.9116 107.027 86.9069 107.035Z" fill="black"></path>
<path d="M83.9577 33.0727C95.5135 23.3593 103.235 1.47637 98.4831 0.519262C92.1692 -0.752946 78.4584 4.82553 71.8314 5.80839C62.4321 6.94397 52.195 -4.39038 46.4487 1.92738C41.7766 7.06414 49.7983 25.7449 62.3485 33.8832C24.9056 52.2971 -27.7228 144.737 64.0903 151.444C191.129 160.725 127.516 51.0167 83.9577 33.0727ZM94.8679 105.975C94.4772 109.579 92.5685 112.838 89.7154 115.05C86.7028 117.386 82.9243 118.473 79.1701 118.777V122.759C79.1701 123.825 78.7051 124.855 77.908 125.56C76.8124 126.53 75.2025 126.77 73.8728 126.157C72.5599 125.552 71.6974 124.205 71.6974 122.759V118.407C71.0536 118.285 70.4145 118.139 69.7829 117.966C66.2743 117.001 63.0198 115.121 60.6424 112.339C59.4582 110.952 58.4927 109.379 57.825 107.681C57.6506 107.237 57.4951 106.785 57.3589 106.328C57.2356 105.914 57.1084 105.493 57.0644 105.062C56.9904 104.338 57.1337 103.6 57.4708 102.955C58.1635 101.63 59.6233 100.829 61.1139 100.962C62.5808 101.092 63.8665 102.111 64.3284 103.51C64.4706 103.941 64.5671 104.383 64.7269 104.809C64.8853 105.232 65.0765 105.644 65.3013 106.036C65.7453 106.808 66.3014 107.52 66.942 108.137C68.2624 109.41 69.9441 110.237 71.6974 110.73V95.936C68.2692 95.0479 64.7305 93.9008 61.8995 91.6984C60.5237 90.6275 59.3563 89.297 58.5918 87.7222C57.785 86.0602 57.4508 84.2085 57.4372 82.3694C57.4233 80.5021 57.7779 78.6512 58.5564 76.9498C59.2856 75.3567 60.3354 73.9264 61.6225 72.7408C64.3748 70.206 68.0307 68.7922 71.6978 68.2728V64.1393C71.6978 63.0742 72.1628 62.0434 72.9599 61.3381C74.0558 60.3685 75.665 60.1289 76.9951 60.7419C78.3076 61.3467 79.1705 62.6937 79.1705 64.1393V68.2503C79.6591 68.3118 80.1463 68.3855 80.631 68.4735C84.2318 69.1255 87.7537 70.6134 90.387 73.2111C91.6345 74.4415 92.6557 75.9075 93.3738 77.5063C93.5743 77.9523 93.7498 78.4087 93.9017 78.874C94.0433 79.3078 94.1855 79.7546 94.2531 80.2074C94.3611 80.9302 94.251 81.677 93.9418 82.3383C93.3084 83.6931 91.8879 84.5558 90.3934 84.4918C88.9251 84.4278 87.5947 83.471 87.0689 82.0976C86.9123 81.6892 86.834 81.2567 86.6742 80.8494C86.513 80.437 86.3043 80.0435 86.0637 79.6719C85.5962 78.9495 84.9903 78.33 84.2987 77.8196C82.801 76.713 80.9845 76.1364 79.1694 75.8142V89.9712C81.3265 90.488 83.4855 91.0517 85.5522 91.8672C88.6759 93.0997 91.6359 94.9896 93.3409 97.9696C93.0764 97.5054 92.819 97.0529 93.3498 97.985C93.871 98.9006 93.6222 98.4643 93.3606 98.0054C94.7171 100.397 95.1628 103.258 94.8679 105.975Z" fill="black"></path>
<path d="M86.7243 107.359C86.7025 107.398 86.6835 107.433 86.6685 107.459C86.6814 107.436 86.7007 107.402 86.7243 107.359Z" fill="black"></path>
</svg></svg></g></g><defs><clipPath id="SvgjsClipPath1212"><rect width="1000" height="1000" x="0" y="0" rx="500" ry="500"></rect></clipPath></defs></svg>